<svg width="44" height="48" viewBox="0 0 44 48" fill="none" xmlns="http://www.w3.org/2000/svg">
<g clip-path="url(#clip0_132_1997)">
<circle cx="22" cy="24.2499" r="20.5" stroke="#7655FA" stroke-width="3"/>
<path d="M30.132 32.3817C25.9926 36.5211 21.3031 39.2234 17.1267 40.2973C12.9126 41.3809 9.51602 40.7571 7.50461 38.7457C5.4932 36.7343 4.86941 33.3377 5.95304 29.1236C7.02696 24.9472 9.72917 20.2577 13.8686 16.1183C18.008 11.9789 22.6975 9.27668 26.8739 8.20276C31.088 7.11913 34.4846 7.74292 36.496 9.75433C38.5074 11.7657 39.1312 15.1624 38.0476 19.3765C36.9736 23.5528 34.2714 28.2424 30.132 32.3817Z" stroke="#7655FA" stroke-width="3"/>
<path d="M30.1314 16.1182C34.2708 20.2576 36.973 24.9471 38.047 29.1235C39.1306 33.3376 38.5068 36.7342 36.4954 38.7456C34.484 40.757 31.0874 41.3808 26.8733 40.2972C22.6969 39.2233 18.0074 36.5211 13.868 32.3817C9.72859 28.2423 7.02638 23.5528 5.95245 19.3764C4.86883 15.1623 5.49262 11.7657 7.50402 9.75426C9.51543 7.74285 12.9121 7.11906 17.1262 8.20269C21.3025 9.27661 25.992 11.9788 30.1314 16.1182Z" stroke="#7655FA" stroke-width="3"/>
</g>
<defs>
<clipPath id="clip0_132_1997">
<rect width="44" height="48" fill="white"/>
</clipPath>
</defs>
</svg>
