<svg width="80" height="80" viewBox="0 0 80 80" fill="none" xmlns="http://www.w3.org/2000/svg">
<rect width="80" height="80" rx="40" fill="#1E1640"/>
<g clip-path="url(#clip0_716_4209)">
<circle cx="40.0017" cy="40.3193" r="26.1944" stroke="white" stroke-width="3.83333"/>
<path d="M50.3897 50.71C45.1004 55.9992 39.1083 59.452 33.7718 60.8243C28.3871 62.2089 24.047 61.4118 21.4769 58.8417C18.9067 56.2716 18.1097 51.9314 19.4943 46.5468C20.8665 41.2103 24.3194 35.2181 29.6086 29.9289C34.8978 24.6397 40.89 21.1868 46.2265 19.8146C51.6111 18.43 55.9513 19.227 58.5214 21.7972C61.0915 24.3673 61.8886 28.7074 60.504 34.0921C59.1317 39.4286 55.6789 45.4207 50.3897 50.71Z" stroke="white" stroke-width="3.83333"/>
<path d="M50.3928 29.9288C55.6821 35.2181 59.1349 41.2102 60.5071 46.5467C61.8918 51.9314 61.0947 56.2715 58.5246 58.8417C55.9544 61.4118 51.6143 62.2088 46.2296 60.8242C40.8932 59.452 34.901 55.9992 29.6118 50.7099C24.3225 45.4207 20.8697 39.4285 19.4975 34.0921C18.1128 28.7074 18.9099 24.3672 21.48 21.7971C24.0502 19.227 28.3903 18.4299 33.775 19.8145C39.1114 21.1868 45.1036 24.6396 50.3928 29.9288Z" stroke="white" stroke-width="3.83333"/>
</g>
<defs>
<clipPath id="clip0_716_4209">
<rect width="56.2222" height="61.3333" fill="white" transform="translate(11.8906 9.33334)"/>
</clipPath>
</defs>
</svg>
