<svg width="52" height="53" viewBox="0 0 52 53" fill="none" xmlns="http://www.w3.org/2000/svg">
<g clip-path="url(#clip0_993_5769)">
<path d="M26 52.5C40.3594 52.5 52 40.8594 52 26.5C52 12.1406 40.3594 0.5 26 0.5C11.6406 0.5 0 12.1406 0 26.5C0 40.8594 11.6406 52.5 26 52.5Z" fill="#635BFF"/>
<path fill-rule="evenodd" clip-rule="evenodd" d="M23.9742 20.715C23.9742 19.493 24.9752 19.012 26.6392 19.012C29.0312 19.012 32.0472 19.74 34.4392 21.027V13.643C31.8262 12.603 29.2522 12.2 26.6522 12.2C20.2692 12.2 16.0312 15.528 16.0312 21.092C16.0312 29.763 27.9782 28.385 27.9782 32.129C27.9782 33.572 26.7172 34.04 24.9622 34.04C22.3492 34.04 19.0212 32.974 16.3822 31.531V39.006C19.3072 40.267 22.2582 40.8 24.9622 40.8C31.5012 40.8 35.9992 37.563 35.9992 31.934C35.9472 22.574 23.9742 24.238 23.9742 20.715Z" fill="white"/>
</g>
<defs>
<clipPath id="clip0_993_5769">
<rect width="52" height="52" fill="white" transform="translate(0 0.5)"/>
</clipPath>
</defs>
</svg>
