<svg width="217" height="218" viewBox="0 0 217 218" fill="none" xmlns="http://www.w3.org/2000/svg">
<path d="M1.00047 217.411H216C216.276 217.411 216.5 217.187 216.5 216.91C216.5 216.634 216.276 216.41 216 216.41H1.00047C0.724038 216.41 0.5 216.634 0.5 216.91C0.5 217.187 0.724038 217.411 1.00047 217.411Z" fill="#17282F"/>
<path d="M147.391 15.3353V17.2491C147.391 17.5254 147.615 17.7496 147.891 17.7496C148.168 17.7496 148.392 17.5254 148.392 17.2491V15.3353C148.392 15.0591 148.168 14.8349 147.891 14.8349C147.615 14.8349 147.391 15.0591 147.391 15.3353Z" fill="#17282F"/>
<path d="M147.391 19.4072V21.321C147.391 21.5973 147.615 21.8215 147.891 21.8215C148.168 21.8215 148.392 21.5973 148.392 21.321V19.4072C148.392 19.1305 148.168 18.9067 147.891 18.9067C147.615 18.9067 147.391 19.1305 147.391 19.4072Z" fill="#17282F"/>
<path d="M144.895 18.8286H146.809C147.086 18.8286 147.31 18.6043 147.31 18.3281C147.31 18.0513 147.086 17.8276 146.809 17.8276H144.895C144.619 17.8276 144.395 18.0513 144.395 18.3281C144.395 18.6043 144.619 18.8286 144.895 18.8286Z" fill="#17282F"/>
<path d="M148.969 18.8286H150.883C151.159 18.8286 151.383 18.6043 151.383 18.3281C151.383 18.0513 151.159 17.8276 150.883 17.8276H148.969C148.693 17.8276 148.469 18.0513 148.469 18.3281C148.469 18.6043 148.693 18.8286 148.969 18.8286Z" fill="#17282F"/>
<path d="M197.211 193.483V195.397C197.211 195.673 197.435 195.897 197.711 195.897C197.988 195.897 198.212 195.673 198.212 195.397V193.483C198.212 193.207 197.988 192.982 197.711 192.982C197.435 192.982 197.211 193.207 197.211 193.483Z" fill="#17282F"/>
<path d="M197.211 197.554V199.468C197.211 199.745 197.435 199.969 197.711 199.969C197.988 199.969 198.212 199.745 198.212 199.468V197.554C198.212 197.277 197.988 197.054 197.711 197.054C197.435 197.054 197.211 197.277 197.211 197.554Z" fill="#17282F"/>
<path d="M194.719 196.976H196.633C196.909 196.976 197.133 196.751 197.133 196.475C197.133 196.199 196.909 195.975 196.633 195.975H194.719C194.443 195.975 194.219 196.199 194.219 196.475C194.219 196.751 194.443 196.976 194.719 196.976Z" fill="#17282F"/>
<path d="M198.79 196.976H200.703C200.98 196.976 201.204 196.751 201.204 196.475C201.204 196.199 200.98 195.975 200.703 195.975H198.79C198.513 195.975 198.289 196.199 198.289 196.475C198.289 196.751 198.513 196.976 198.79 196.976Z" fill="#17282F"/>
<path d="M9.51172 175.015V176.929C9.51172 177.206 9.73573 177.429 10.0122 177.429C10.2886 177.429 10.5127 177.206 10.5127 176.929V175.015C10.5127 174.739 10.2886 174.515 10.0122 174.515C9.73573 174.515 9.51172 174.739 9.51172 175.015Z" fill="#17282F"/>
<path d="M9.51172 179.087V181.001C9.51172 181.277 9.73573 181.501 10.0122 181.501C10.2886 181.501 10.5127 181.277 10.5127 181.001V179.087C10.5127 178.81 10.2886 178.586 10.0122 178.586C9.73573 178.586 9.51172 178.81 9.51172 179.087Z" fill="#17282F"/>
<path d="M7.02 178.508H8.93389C9.21035 178.508 9.43436 178.284 9.43436 178.008C9.43436 177.732 9.21035 177.507 8.93389 177.507H7.02C6.74359 177.507 6.51953 177.732 6.51953 178.008C6.51953 178.284 6.74359 178.508 7.02 178.508Z" fill="#17282F"/>
<path d="M11.0903 178.508H13.0043C13.2807 178.508 13.5047 178.284 13.5047 178.008C13.5047 177.732 13.2807 177.507 13.0043 177.507H11.0903C10.8141 177.507 10.5898 177.732 10.5898 178.008C10.5898 178.284 10.8141 178.508 11.0903 178.508Z" fill="#17282F"/>
<path d="M49.625 0.50052V2.41433C49.625 2.69058 49.8493 2.91479 50.1255 2.91479C50.4019 2.91479 50.6262 2.69058 50.6262 2.41433V0.50052C50.6262 0.224261 50.4019 5.10216e-05 50.1255 5.10216e-05C49.8493 5.10216e-05 49.625 0.224261 49.625 0.50052Z" fill="#17282F"/>
<path d="M49.625 4.5722V6.48598C49.625 6.76224 49.8493 6.98645 50.1255 6.98645C50.4019 6.98645 50.6262 6.76224 50.6262 6.48598V4.5722C50.6262 4.29594 50.4019 4.07173 50.1255 4.07173C49.8493 4.07173 49.625 4.29594 49.625 4.5722Z" fill="#17282F"/>
<path d="M47.1333 3.99371H49.0468C49.3232 3.99371 49.5473 3.7695 49.5473 3.49324C49.5473 3.21699 49.3232 2.99278 49.0468 2.99278H47.1333C46.8569 2.99278 46.6328 3.21699 46.6328 3.49324C46.6328 3.7695 46.8569 3.99371 47.1333 3.99371Z" fill="#17282F"/>
<path d="M51.2036 3.99371H53.1179C53.3942 3.99371 53.6184 3.7695 53.6184 3.49324C53.6184 3.21699 53.3942 2.99278 53.1179 2.99278H51.2036C50.9273 2.99278 50.7031 3.21699 50.7031 3.49324C50.7031 3.7695 50.9273 3.99371 51.2036 3.99371Z" fill="#17282F"/>
<path d="M192.498 5.73976C189.26 5.19424 185.197 11.4511 185.197 11.4511C185.197 11.4511 184.646 3.309 180.683 3.49617C180.138 3.5217 179.449 3.67081 178.821 4.37598C172.735 11.2104 181.825 27.6863 181.825 27.6863C181.825 27.6863 197.665 14.8268 194.17 7.03648C193.762 6.13063 193.05 5.83284 192.498 5.73976Z" fill="#BA54F9"/>
<path d="M209.924 32.2466C208.043 31.0715 203.895 33.9317 203.895 33.9317C203.895 33.9317 205.648 28.7063 203.126 27.8025C202.779 27.6778 202.31 27.5933 201.737 27.872C196.176 30.5711 197.607 43.1984 197.607 43.1984C197.607 43.1984 210.809 39.2507 210.634 33.4873C210.613 32.8162 210.244 32.4473 209.924 32.2466Z" fill="#BA54F9"/>
<path d="M81.3701 154.236C81.3701 154.236 73.8471 172.783 69.475 184.749C65.1029 196.715 59.8555 216.38 59.8555 216.38H118.753L121.698 189.779L126.128 216.38H172.136C172.136 216.38 171.767 190.739 169.322 178.102C166.878 165.465 158.843 143.789 158.843 143.789L81.3701 154.236Z" fill="#F9AF40"/>
<mask id="mask0_1715_11789" style="mask-type:luminance" maskUnits="userSpaceOnUse" x="69" y="144" width="103" height="60">
<path d="M123.994 203.575L121.89 190.967V190.919L123.994 203.553V203.575ZM171.265 195.421C171.139 193.554 170.996 191.675 170.832 189.83C171.001 191.693 171.144 193.567 171.265 195.421ZM69.2578 185.353C69.3289 185.147 69.3999 184.947 69.4705 184.753C69.5236 184.609 69.5816 184.454 69.6427 184.295C69.5871 184.448 69.5316 184.599 69.4765 184.749C69.4039 184.948 69.3309 185.15 69.2578 185.353ZM81.1164 154.866C81.2676 154.488 81.3712 154.229 81.3712 154.229L82.1039 154.137L81.3717 154.236C81.3717 154.236 81.2821 154.457 81.1164 154.866ZM86.023 153.609V153.604L88.127 153.325L86.023 153.609ZM92.0056 152.802V152.799L93.6977 152.574L92.0056 152.802ZM97.9727 151.998V151.993L100.035 151.719L97.9727 151.998ZM103.956 151.19V151.188L105.289 151.011L103.956 151.19ZM109.939 150.383L110.621 150.292L109.939 150.384M115.906 149.579V149.577L117.068 149.422L115.906 149.579ZM121.89 148.772L122.348 148.711L121.89 148.772M127.856 147.966L128.663 147.859L127.856 147.968M133.84 147.161L133.916 147.151L133.84 147.161M139.806 146.355L140.255 146.296L139.806 146.356M151.756 144.744L152.042 144.706L151.756 144.745" fill="white"/>
</mask>
<g mask="url(#mask0_1715_11789)">
<path d="M69.2578 203.575H171.265V144.706H69.2578V203.575Z" fill="white"/>
</g>
<path d="M171.792 216.379H169.688V180.414C170.167 183.418 170.538 186.609 170.83 189.83C170.994 191.675 171.137 193.554 171.263 195.421C171.513 199.218 171.673 202.931 171.792 206.302V216.379ZM165.809 216.379H163.705V157.944C164.415 160.125 165.114 162.407 165.809 164.716V216.379ZM159.842 216.379H157.738V143.939L158.839 143.791C158.839 143.791 159.648 146.133 159.842 146.667V216.379ZM153.859 216.379H151.755V144.744L152.041 144.706L153.859 144.465V216.379ZM147.892 216.379H145.788V145.549L147.892 145.27V216.379ZM141.909 216.379H139.805V146.355L140.253 146.296L141.909 146.075V216.379ZM135.942 216.379H133.838V147.16L133.914 147.15L135.942 146.881V216.379ZM129.959 216.379H127.855V147.966L128.661 147.859L129.959 147.686V216.379ZM118.008 216.379H115.905V149.579L117.067 149.422L118.008 149.297V216.379ZM112.042 216.379H109.938V150.382L110.62 150.292L112.042 150.103V216.379ZM106.059 216.379H103.954V151.19L105.287 151.011L106.059 150.908V216.379ZM100.075 216.379H97.9712V151.997L100.034 151.719L100.075 151.714V216.379ZM94.1081 216.379H92.0041V152.802L93.6962 152.574L94.1081 152.519V216.379ZM88.1255 216.379H86.0215V153.609L88.1255 153.325V216.379ZM82.1584 216.379H80.0544V157.516C80.2661 156.991 80.7961 155.664 81.1149 154.866C81.2806 154.457 81.3701 154.236 81.3701 154.236L82.1023 154.137L82.1584 154.13V216.379ZM76.1753 216.379H74.0713V172.787C74.806 170.895 75.4721 169.098 76.1753 167.313V216.379ZM70.2087 216.379H68.1042V188.846C68.4911 187.703 68.8769 186.451 69.2563 185.353C69.3293 185.15 69.4024 184.948 69.475 184.749C69.53 184.599 69.5856 184.448 69.6411 184.295C69.8263 183.815 70.038 183.289 70.2087 182.83V216.379ZM64.2251 216.379H62.1211V208.275C62.8303 205.752 63.2506 204.352 64.2251 201.075V216.379ZM123.992 203.553L121.888 190.919V148.771L122.346 148.71L123.992 148.492V203.553Z" fill="#FBC46D"/>
<path d="M83.7801 158.455L64.3739 216.22C64.2858 216.482 64.4265 216.766 64.6887 216.854C64.951 216.942 65.2347 216.801 65.3223 216.539L84.729 158.774C84.8166 158.512 84.6759 158.228 84.4137 158.14C84.152 158.052 83.8682 158.193 83.7801 158.455Z" fill="#17282F"/>
<path d="M78.1335 177.356C78.1571 177.361 79.5649 177.688 81.4041 177.688C82.4771 177.688 83.6983 177.577 84.8824 177.212C86.0645 176.848 87.2171 176.222 88.1029 175.19C88.9307 174.217 89.6779 172.628 90.39 170.754C92.51 165.146 94.1651 157.011 94.1686 156.999C94.2241 156.727 94.049 156.463 93.7782 156.408C93.5075 156.353 93.2432 156.528 93.1882 156.798C93.1877 156.799 93.1426 157.021 93.0565 157.421C92.7552 158.822 91.959 162.381 90.9135 165.96C90.391 167.749 89.806 169.544 89.1934 171.07C88.5838 172.594 87.9327 173.855 87.3432 174.538C86.6095 175.394 85.6406 175.93 84.5871 176.256C83.5356 176.581 82.407 176.688 81.4041 176.688C80.5443 176.688 79.7766 176.61 79.2281 176.532C78.9533 176.494 78.7336 176.455 78.5835 176.426C78.5089 176.412 78.4513 176.4 78.4133 176.392L78.3713 176.383L78.3597 176.381C78.0905 176.318 77.8217 176.485 77.7592 176.755C77.6966 177.024 77.8643 177.293 78.1335 177.356Z" fill="#17282F"/>
<path d="M167.34 181.018L168.516 215.495C168.525 215.771 168.756 215.987 169.033 215.978C169.309 215.968 169.526 215.737 169.516 215.461L168.341 180.984C168.331 180.707 168.099 180.491 167.823 180.501C167.547 180.51 167.331 180.741 167.34 181.018Z" fill="#17282F"/>
<path d="M89.4555 49.8743L89.501 49.8532C89.9835 49.634 94.241 47.7613 100.478 46.8589C105.897 46.0747 112.012 45.9991 114.102 45.9996C114.584 45.9996 114.849 46.0036 114.85 46.0036C115.126 46.0076 115.353 45.7864 115.357 45.5102C115.361 45.2339 115.141 45.0067 114.864 45.0027C114.862 45.0027 114.589 44.9987 114.102 44.9987C111.986 44.9992 105.845 45.0718 100.335 45.8685C93.5428 46.8519 89.0611 48.9544 89.0301 48.9684C88.7798 49.0855 88.6722 49.3838 88.7898 49.634C88.9074 49.8843 89.2052 49.9919 89.4555 49.8743Z" fill="#17282F"/>
<path d="M89.671 47.1682C89.671 47.1682 69.8899 52.0117 56.3552 66.5033C42.82 80.9944 30.4963 110.128 30.4963 110.128L44.0856 125.266C44.0856 125.266 47.2822 133.554 45.2496 143.251C43.2177 152.948 41.7192 161.571 35.9573 164.055C25.9802 168.356 16.6719 146.746 16.6719 146.746C16.6719 146.746 18.4253 157.168 21.0312 161.738C23.6372 166.308 29.3545 174.007 36.6769 173.551C46.7929 172.922 57.3311 161.046 62.1482 149.004C66.9647 136.963 68.3405 120.277 68.3405 120.277C68.3405 120.277 68.8144 123.542 70.2187 126.263C71.624 128.985 71.8763 130.405 71.4369 133.215C70.9985 136.024 69.3409 139.948 71.8868 142.943C74.4332 145.939 79.7006 146.019 79.7006 146.019L159.216 134.419L147.29 74.5964L184.223 70.7488C184.223 70.7488 172.681 49.0124 140.943 45.935C109.203 42.8571 113.627 45.5497 113.627 45.5497L105.163 71.9029C105.163 71.9029 100.739 64.5935 97.662 59.9772C94.5841 55.3604 89.671 47.1682 89.671 47.1682Z" fill="#BA54F9"/>
<path d="M88.3662 45.5983C88.3662 45.5983 82.85 46.9305 79.1165 50.7511C75.3835 54.5707 74.4336 65.0976 74.4336 65.0976C74.4336 65.0976 80.1344 62.1748 84.3018 59.657C88.4687 57.1391 91.6282 59.74 91.6282 59.74C91.6282 59.74 88.0388 63.2603 86.6495 67.0804C85.2602 70.9005 85.1521 74.8472 85.1521 74.8472C85.1521 74.8472 90.2089 73.2617 94.7316 73.2167C99.2539 73.1706 107.689 79.7078 107.689 79.7078C107.689 79.7078 109.618 69.7284 111.441 67.4713C113.264 65.2142 129.136 58.7756 129.136 58.7756C129.136 58.7756 128.015 55.8914 124.323 52.9302C120.631 49.9689 117.394 49.7197 117.394 49.7197C117.394 49.7197 119.654 48.6051 123.031 48.008C126.407 47.411 131.444 47.0331 131.444 47.0331C131.444 47.0331 128.453 42.9893 125.44 41.3823C122.428 39.7753 115.637 40.7157 114.419 41.3823C113.2 42.0495 110.902 47.3244 108.645 54.2699C106.387 61.2159 104.477 70.9395 104.477 70.9395C104.477 70.9395 101.318 62.7228 96.9772 56.2983C92.6362 49.8738 88.3662 45.5983 88.3662 45.5983Z" fill="#17282F"/>
<path d="M43.8685 124.749C43.8685 124.749 45.3358 129.461 44.5443 138.268C43.7527 147.074 41.7096 161.517 34.8958 162.586C23.8522 164.318 16.6719 146.746 16.6719 146.746C16.6719 146.746 18.3987 160.651 24.2657 166.336C27.0245 169.009 35.0911 171.937 39.5204 167.416C43.9503 162.895 48.2427 152.483 48.1801 145.87C48.1342 141.101 48.2994 133.64 47.4552 130.049C46.2863 125.08 43.8685 124.749 43.8685 124.749Z" fill="#17282F"/>
<path d="M20.3047 97.5519C19.7255 97.5955 19.2913 98.0904 19.3351 98.6695C19.3926 99.4327 19.4391 100.201 19.4995 100.955C19.8037 104.757 20.1431 108.287 20.4691 111.458C20.5835 112.569 20.891 115.406 20.8965 115.453C20.9657 116.029 21.4867 116.442 22.0636 116.373C22.6405 116.304 23.0534 115.783 22.9842 115.206C22.9789 115.162 22.6704 112.348 22.5566 111.245C22.2323 108.089 21.9064 104.576 21.6034 100.79C21.5434 100.039 21.4799 99.2815 21.4226 98.5218C21.379 97.9428 20.8842 97.5084 20.3047 97.5519Z" fill="#17282F"/>
<path d="M19.8632 86.6708C19.2836 86.6318 18.7841 87.0772 18.7456 87.6567C18.7325 87.8544 18.7157 88.0451 18.6963 88.2488C18.6412 88.8268 19.0549 89.3443 19.6331 89.3989C20.2116 89.4544 20.7287 89.024 20.7838 88.446C20.8049 88.2228 20.8186 88.0061 20.8331 87.7884C20.8716 87.2088 20.4431 86.7088 19.8632 86.6708Z" fill="#17282F"/>
<path d="M36.4486 60.0418C35.1021 59.9982 31.9759 60.2384 28.5254 62.8529C23.925 66.3382 23.0024 71.8929 23.0024 71.8929C23.0024 71.8929 27.8228 71.1086 31.7145 68.9016C35.6058 66.694 37.1387 60.1073 37.1387 60.1073C37.1387 60.1073 36.8973 60.0558 36.4486 60.0418ZM22.0326 45.4946C22.0326 45.4946 20.4808 52.7664 23.0846 54.8474C22.6466 56.564 22.181 58.6369 21.7202 60.9456C21.241 59.3481 20.0559 56.3783 17.2328 54.2388C13.2382 51.2125 9.75391 51.8391 9.75391 51.8391C9.75391 51.8391 11.0758 57.5659 14.455 59.4827C17.492 61.2053 20.8055 61.8359 21.5231 61.9646C21.0246 64.5575 20.5161 67.5093 19.9944 71.0221C19.8244 72.1661 19.6872 73.3878 19.567 74.671L21.6545 74.8682C21.7714 73.6215 21.9179 72.4389 22.0819 71.3338C23.1545 64.1131 24.17 59.0974 25.1228 55.3574C28.9111 55.0456 32.4211 49.3903 32.4211 49.3903L22.0326 45.4946Z" fill="#17282F"/>
<path d="M32.0575 27.9436C32.0575 27.9436 28.8415 19.9762 23.5064 21.5191C18.1714 23.0621 20.0491 30.0611 20.0491 30.0611C20.0491 30.0611 12.5534 25.7941 10.3508 31.8803C8.14815 37.967 17.3982 39.4204 17.3982 39.4204C17.3982 39.4204 9.61903 43.1519 13.1984 47.7427C16.7775 52.3335 25.3699 47.6156 25.3699 47.6156C25.3699 47.6156 29.1129 53.9655 35.9572 53.7778C42.8015 53.5907 40.584 46.3679 40.584 46.3679C40.584 46.3679 48.3045 47.9284 49.9099 42.5403C51.5147 37.1523 43.7158 35.6604 43.7158 35.6604C43.7158 35.6604 48.798 29.9795 44.1903 26.2295C39.5819 22.48 32.0575 27.9436 32.0575 27.9436Z" fill="#F9AF40"/>
<path d="M23.0441 35.265C23.5084 32.7636 27.2158 31.3533 31.3241 32.116C35.4333 32.8787 38.3874 35.5247 37.9229 38.0265C37.459 40.5289 33.7518 41.9382 29.6427 41.1755C25.5342 40.4128 22.5798 37.7663 23.0441 35.265Z" fill="#BA54F9"/>
<path d="M26.5127 30.0261L28.8856 38.0852C28.9636 38.3504 29.242 38.5021 29.5071 38.424C29.7722 38.3459 29.9239 38.0677 29.8456 37.8024L27.4729 29.7439C27.3949 29.4786 27.1165 29.327 26.8514 29.405C26.5863 29.4831 26.4346 29.7614 26.5127 30.0261Z" fill="#17282F"/>
<path d="M32.2854 30.1782L28.9069 37.7398C28.7943 37.9921 28.9072 38.2883 29.1596 38.4009C29.412 38.5135 29.708 38.4004 29.8208 38.1482L33.1994 30.5866C33.312 30.3344 33.199 30.0386 32.9466 29.9255C32.6942 29.8129 32.3982 29.926 32.2854 30.1782Z" fill="#17282F"/>
<path d="M29.7169 38.6116L36.3901 33.3462C36.6071 33.175 36.6443 32.8602 36.473 32.643C36.3018 32.4263 35.9872 32.3893 35.7702 32.5604L29.0968 37.8264C28.8797 37.997 28.8426 38.3118 29.0139 38.529C29.1851 38.7457 29.4999 38.7833 29.7169 38.6116Z" fill="#17282F"/>
<path d="M29.8725 38.6979L38.0074 36.2315C38.2721 36.1515 38.4215 35.8717 38.3413 35.6075C38.261 35.3427 37.9816 35.1936 37.7171 35.2736L29.5819 37.7399C29.3174 37.8205 29.168 38.0998 29.2482 38.3645C29.3283 38.6288 29.6079 38.7784 29.8725 38.6979Z" fill="#17282F"/>
<path d="M25.5586 29.6312C25.5586 28.869 26.1764 28.2509 26.9386 28.2509C27.7009 28.2509 28.3188 28.869 28.3188 29.6312C28.3188 30.3934 27.7009 31.011 26.9386 31.011C26.1764 31.011 25.5586 30.3934 25.5586 29.6312Z" fill="#17282F"/>
<path d="M31.7461 30.383C31.7461 29.6202 32.3636 29.0027 33.1259 29.0027C33.8879 29.0027 34.5059 29.6202 34.5059 30.383C34.5059 31.1447 33.8879 31.7628 33.1259 31.7628C32.3636 31.7628 31.7461 31.1447 31.7461 30.383Z" fill="#17282F"/>
<path d="M35.207 32.3914C35.207 31.6292 35.8252 31.0111 36.5872 31.0111C37.3495 31.0111 37.9677 31.6292 37.9677 32.3914C37.9677 33.1536 37.3495 33.7717 36.5872 33.7717C35.8252 33.7717 35.207 33.1536 35.207 32.3914Z" fill="#17282F"/>
<path d="M36.5898 35.7525C36.5898 34.9908 37.208 34.3722 37.9703 34.3722C38.7323 34.3722 39.3505 34.9908 39.3505 35.7525C39.3505 36.5147 38.7323 37.1323 37.9703 37.1323C37.208 37.1323 36.5898 36.5147 36.5898 35.7525Z" fill="#17282F"/>
<path d="M46.4642 127.873C46.4621 127.87 38.5569 118.347 32.3218 111.367C29.2158 107.89 26.2747 104.371 24.1112 101.722C23.0293 100.399 22.142 99.2915 21.5252 98.5163C21.2167 98.1289 20.976 97.8241 20.8124 97.6165C20.649 97.4083 20.5633 97.2986 20.5631 97.2981C20.3933 97.0804 20.0787 97.0414 19.8607 97.2116C19.6428 97.3812 19.6038 97.6955 19.7737 97.9137C19.7776 97.9187 25.3352 105.047 31.5753 112.033C34.683 115.513 38.2139 119.634 40.9667 122.884C42.343 124.509 43.5251 125.916 44.3628 126.917C44.7817 127.417 45.1147 127.816 45.3428 128.09C45.5708 128.364 45.6937 128.512 45.6939 128.512C45.8705 128.725 46.186 128.754 46.3987 128.577C46.6114 128.401 46.6407 128.086 46.4642 127.873Z" fill="#17282F"/>
<path d="M25.3099 159.811C25.3099 159.811 25.2817 159.773 25.2249 159.694C24.369 158.508 17.2322 148.426 11.0432 133.78C5.54762 120.785 3.04078 104.786 3.04391 95.0241C3.04371 93.0888 3.14224 91.3997 3.33168 90.0374C3.7516 87.013 4.19909 84.4852 5.0884 81.8893C5.97793 79.2933 7.31178 76.6163 9.52715 73.2977C11.736 69.9886 14.0439 67.4347 15.998 65.7071C16.9743 64.8433 17.8633 64.1866 18.5968 63.7482C18.9633 63.529 19.291 63.3644 19.5651 63.2558C19.8386 63.1462 20.0604 63.0951 20.1957 63.0891C20.2511 63.0856 20.3039 63.0846 20.3539 63.0846C20.5881 63.0841 20.7652 63.1166 20.8937 63.1632C21.0858 63.2368 21.1767 63.3228 21.2561 63.4595C21.3329 63.5966 21.3838 63.8063 21.3832 64.0856C21.3842 64.4459 21.2989 64.9078 21.1456 65.4113C20.6886 66.9287 19.6388 68.801 18.9017 69.9631C17.3475 72.4219 14.635 77.1528 14.6331 77.1563C14.5166 77.3595 14.5569 77.6167 14.7299 77.7749C14.9029 77.9325 15.1633 77.9491 15.3549 77.8144L15.395 77.7869C15.6049 77.6433 16.6225 76.9656 17.9685 76.3305C19.3127 75.6934 20.9898 75.1094 22.4699 75.1129C23.456 75.1149 24.3332 75.3576 25.0485 75.9722C26.1724 76.9381 27.1063 78.3464 27.746 79.7883C28.388 81.2276 28.734 82.706 28.7315 83.757C28.7328 84.2254 28.6611 84.6038 28.5528 84.8365C28.4992 84.9536 28.4398 85.0332 28.3831 85.0852C28.3252 85.1368 28.2717 85.1663 28.1962 85.1848H28.1964C28.102 85.2074 28.0169 85.2169 27.9372 85.2169C27.6531 85.2154 27.4002 85.0988 27.1024 84.8355C26.6606 84.4446 26.2127 83.742 25.7298 83.0198C25.2407 82.2991 24.7126 81.5484 23.9629 81.0645C23.3217 80.6641 22.5067 80.5635 21.6403 80.5585C20.4788 80.5595 19.2132 80.7712 18.2261 80.9799C17.2402 81.1891 16.5374 81.3973 16.5286 81.3998C16.2651 81.4779 16.1136 81.7556 16.1902 82.0194C16.267 82.2831 16.5435 82.4363 16.808 82.3612C16.808 82.3612 16.8436 82.3507 16.9161 82.3317C17.4207 82.1945 19.6329 81.6405 21.5178 81.643C22.2631 81.6415 22.9528 81.7326 23.4349 81.9333C23.5479 81.9788 23.7037 82.0859 23.872 82.2606C24.1688 82.5649 24.4972 83.0634 24.8022 83.6764C25.7261 85.5172 26.4532 88.3898 26.4477 90.4092C26.4487 91.0188 26.3814 91.5488 26.2557 91.9292C26.1935 92.1193 26.1179 92.271 26.0385 92.3806C25.9584 92.4907 25.8784 92.5587 25.793 92.6038C25.6764 92.6633 25.5834 92.6834 25.4907 92.6839C25.3564 92.6839 25.2027 92.6363 25.0168 92.5122C24.6927 92.2985 24.3176 91.8481 23.9804 91.2906C23.4699 90.4553 23.0265 89.3918 22.7184 88.545C22.564 88.1216 22.4424 87.7512 22.3597 87.4885C22.3184 87.3569 22.287 87.2523 22.2658 87.1807C22.2447 87.1091 22.2348 87.0736 22.2346 87.0736C22.1734 86.8554 21.9736 86.7058 21.747 86.7083L15.8258 86.7773C15.5615 86.7803 15.3449 86.9885 15.3318 87.2528C15.3185 87.5165 15.5134 87.7457 15.776 87.7748L15.7809 87.7758C15.8635 87.7853 16.8084 87.9149 17.8607 88.4129C18.3872 88.6611 18.9397 89.0004 19.4313 89.4558C19.9232 89.9118 20.3551 90.4813 20.6534 91.2075C21.1255 92.3566 21.6719 93.5927 22.0959 94.7233C22.5221 95.8498 22.8148 96.8868 22.8097 97.5414C22.8107 97.8337 22.7538 98.0314 22.6836 98.137C22.6113 98.2406 22.5401 98.3031 22.3241 98.3502L22.196 98.3622C22.0441 98.3627 21.8547 98.3131 21.6365 98.2C21.2547 98.0049 20.808 97.6175 20.3809 97.142C19.7369 96.4299 19.1276 95.5285 18.6863 94.8109C18.4652 94.4515 18.2855 94.1382 18.1616 93.9155C18.0996 93.8039 18.0515 93.7153 18.0193 93.6548C17.987 93.5947 17.9716 93.5647 17.9714 93.5642C17.9102 93.4456 17.804 93.3565 17.6764 93.3165L13.6898 92.0678C13.4261 91.9852 13.1452 92.1319 13.0627 92.3956C12.98 92.6598 13.1268 92.9406 13.3907 93.0232L17.3773 94.2719L17.5268 93.7939L17.0822 94.0236C17.0889 94.0361 17.7503 95.3178 18.6861 96.6206C19.1553 97.2722 19.6911 97.9298 20.2685 98.4443C20.558 98.7015 20.8583 98.9242 21.1765 99.0894C21.4942 99.253 21.8351 99.3621 22.196 99.3631C22.3008 99.3631 22.4068 99.3536 22.5122 99.3331H22.5123C22.9376 99.2575 23.3127 99.0193 23.5258 98.6785C23.7414 98.3392 23.8096 97.9483 23.8106 97.5414C23.8055 96.6301 23.4697 95.5455 23.0332 94.3719C22.5945 93.2029 22.0439 91.9597 21.5795 90.8271C21.21 89.9268 20.661 89.2171 20.0548 88.6696C19.144 87.8473 18.1098 87.3819 17.3032 87.1156C16.4958 86.8494 15.9118 86.7833 15.8872 86.7803L15.8315 87.2773L15.8373 87.7778L21.7585 87.7092L21.7527 87.2087L21.2708 87.3439C21.2751 87.3574 21.6971 88.8668 22.3923 90.4027C22.7415 91.172 23.1557 91.9477 23.6452 92.5627C23.891 92.87 24.1563 93.1393 24.4587 93.343C24.7594 93.5457 25.1093 93.6848 25.4907 93.6848C25.7484 93.6853 26.0112 93.6187 26.2543 93.4921C26.496 93.3665 26.6952 93.1813 26.8498 92.9666C27.0823 92.6428 27.2251 92.2555 27.3176 91.8261C27.4093 91.3957 27.4484 90.9192 27.4486 90.4092C27.4467 88.7011 27.0085 86.6002 26.3626 84.8025C26.0385 83.9041 25.663 83.0839 25.2489 82.4248C25.0413 82.0949 24.8243 81.8052 24.5907 81.5639C24.3569 81.3237 24.1062 81.1285 23.8159 81.0079C23.136 80.7302 22.3392 80.6436 21.5178 80.6421C19.1594 80.6456 16.5566 81.3943 16.5339 81.3983L16.671 81.8797L16.8132 82.3597C16.8132 82.3597 16.852 82.3482 16.9294 82.3262C17.4668 82.173 19.8147 81.5559 21.6403 81.5594C22.4152 81.5544 23.0844 81.6821 23.4243 81.9083C23.769 82.1265 24.1027 82.4808 24.4235 82.9052C24.9078 83.5408 25.355 84.32 25.8743 84.9746C26.1355 85.3024 26.4172 85.6022 26.754 85.8329C27.0885 86.0632 27.4924 86.2193 27.9372 86.2178C28.0985 86.2178 28.2631 86.1983 28.4288 86.1582H28.429C28.6675 86.1022 28.8861 85.9831 29.0595 85.8229C29.3217 85.5812 29.4849 85.2644 29.5872 84.9166C29.689 84.5673 29.732 84.1789 29.7324 83.757C29.73 82.5018 29.3473 80.9319 28.6607 79.3819C27.9716 77.8349 26.9771 76.314 25.7015 75.2135C24.7682 74.4087 23.6177 74.11 22.4699 74.112C20.6213 74.1165 18.7225 74.8461 17.2627 75.5593C15.8053 76.275 14.7936 76.9857 14.7795 76.9957L15.0671 77.405L15.5013 77.6538C15.5017 77.6533 15.6704 77.359 15.9488 76.8775C16.7828 75.4347 18.5999 72.3138 19.7478 70.4981C20.2569 69.6923 20.9058 68.5758 21.4342 67.4252C21.6983 66.8497 21.9325 66.2651 22.1036 65.7016C22.2739 65.137 22.3833 64.5945 22.3841 64.0856C22.3839 63.8233 22.3544 63.5691 22.2801 63.3263C22.1714 62.9635 21.9434 62.6237 21.6017 62.4035C21.2608 62.1823 20.8383 62.0832 20.3539 62.0837C20.2843 62.0837 20.2131 62.0857 20.1404 62.0897H20.1406C19.844 62.1067 19.5363 62.1908 19.1958 62.3254C18.0152 62.7983 16.4047 63.9204 14.5604 65.6675C12.7209 67.4147 10.6688 69.7854 8.69472 72.7417C6.44477 76.1113 5.0624 78.8754 4.14142 81.5649C3.22024 84.2545 2.76278 86.8574 2.34012 89.8997C2.14228 91.3256 2.04316 93.0542 2.04297 95.0241C2.0461 104.944 4.56017 121.002 10.1213 134.17C16.7696 149.899 24.489 160.383 24.5038 160.404C24.6679 160.627 24.9811 160.675 25.2037 160.51C25.4262 160.347 25.4739 160.033 25.3101 159.811" fill="#17282F"/>
<path d="M105.903 77.6172C105.903 77.6172 105.914 77.6407 105.937 77.6902C106.278 78.4324 109.109 84.7333 110.693 92.0797C111.107 93.9945 111.485 97.7736 111.807 102.316C112.292 109.137 112.66 117.716 112.907 124.586C113.03 128.021 113.123 131.03 113.186 133.18C113.217 134.255 113.24 135.115 113.256 135.706C113.272 136.297 113.279 136.618 113.279 136.619C113.286 136.896 113.515 137.114 113.792 137.107C114.068 137.101 114.287 136.872 114.28 136.595C114.28 136.593 114.056 127.408 113.619 117.232C113.401 112.144 113.129 106.808 112.806 102.245C112.48 97.679 112.109 93.9039 111.671 91.8685C109.952 83.9036 106.818 77.2128 106.81 77.1928C106.692 76.9425 106.394 76.8344 106.144 76.9515C105.894 77.0687 105.786 77.3669 105.903 77.6172Z" fill="#17282F"/>
<path d="M101.203 92.0638C101.203 90.9068 102.142 89.9684 103.298 89.9684C104.456 89.9684 105.394 90.9068 105.394 92.0638C105.394 93.2209 104.456 94.1588 103.298 94.1588C102.142 94.1588 101.203 93.2209 101.203 92.0638Z" fill="#17282F"/>
<path d="M102.938 104.911C102.938 103.754 103.875 102.816 105.032 102.816C106.19 102.816 107.127 103.754 107.127 104.911C107.127 106.069 106.19 107.006 105.032 107.006C103.875 107.006 102.938 106.069 102.938 104.911Z" fill="#17282F"/>
<path d="M103.434 118.002C103.434 116.845 104.371 115.907 105.528 115.907C106.685 115.907 107.623 116.845 107.623 118.002C107.623 119.159 106.685 120.098 105.528 120.098C104.371 120.098 103.434 119.159 103.434 118.002Z" fill="#17282F"/>
<path d="M76.9913 118.851C77.5483 122.186 77.6144 125.863 78.0463 129.49C78.4797 133.116 79.2829 136.707 81.3704 139.841C81.6897 140.318 82.1156 140.659 82.5625 140.976C83.2366 141.45 83.9763 141.882 84.6725 142.575C85.3676 143.267 86.0338 144.216 86.5332 145.764C86.6178 146.027 86.8996 146.172 87.1628 146.087C87.4261 146.002 87.5707 145.721 87.4861 145.457C86.7695 143.211 85.6354 141.98 84.5794 141.167C84.0534 140.759 83.5519 140.45 83.1401 140.158C82.7257 139.866 82.4094 139.596 82.2032 139.286C80.2483 136.354 79.4646 132.934 79.0402 129.372C78.6138 125.811 78.5503 122.124 77.9782 118.687C77.9332 118.415 77.6749 118.23 77.4027 118.275C77.1299 118.321 76.9457 118.579 76.9913 118.851Z" fill="#17282F"/>
<path d="M99.0153 136.196C98.2536 135.671 97.4318 134.802 96.6151 133.794C95.3859 132.283 94.1608 130.465 93.0042 129.006C92.4241 128.276 91.8626 127.634 91.3031 127.155C91.0228 126.915 90.742 126.715 90.4498 126.569C90.158 126.423 89.8497 126.329 89.5264 126.329C89.3983 126.329 89.2692 126.344 89.1425 126.376C88.9599 126.421 88.7892 126.505 88.6486 126.619C88.4359 126.792 88.3013 127.024 88.2252 127.258C88.1481 127.494 88.1216 127.738 88.1211 127.987C88.1241 128.682 88.3278 129.438 88.563 130.098C88.6816 130.427 88.8097 130.728 88.9308 130.978C89.0555 131.232 89.1611 131.423 89.2827 131.578C90.0009 132.474 90.5173 133.658 90.9738 134.946C91.6634 136.876 92.2089 139.021 93.2749 140.747C93.8089 141.609 94.4846 142.368 95.3814 142.907C96.2777 143.446 97.3838 143.753 98.7305 143.751C99.0068 143.751 99.231 143.527 99.231 143.251C99.231 142.975 99.0068 142.75 98.7305 142.75C97.1305 142.746 96.058 142.288 95.2197 141.55C94.5922 140.994 94.0982 140.261 93.6798 139.41C93.0507 138.136 92.6008 136.608 92.0903 135.109C91.5768 133.61 91.0048 132.132 90.0644 130.953C90.0349 130.919 89.9333 130.754 89.8317 130.542C89.675 130.219 89.4929 129.767 89.3542 129.302C89.2146 128.837 89.121 128.353 89.122 127.987C89.1205 127.754 89.1616 127.577 89.2101 127.487C89.2346 127.441 89.2567 127.415 89.2807 127.396C89.3047 127.377 89.3322 127.36 89.3853 127.347C89.4303 127.335 89.4764 127.33 89.5264 127.33C89.6911 127.328 89.9218 127.399 90.2035 127.578C90.697 127.887 91.3036 128.504 91.9422 129.284C92.9056 130.455 93.9606 131.987 95.0516 133.422C96.1466 134.857 97.2672 136.2 98.4458 137.019C98.673 137.176 98.9848 137.12 99.1419 136.892C99.2991 136.665 99.2425 136.353 99.0153 136.196Z" fill="#17282F"/>
<path d="M72.8354 83.9017C72.8369 89.2042 71.3045 94.32 69.75 99.4047C68.1986 104.489 66.6231 109.541 66.6211 114.733C66.6201 118.057 67.2747 121.436 68.9948 124.874L69.4422 124.65L68.9813 124.846L68.9958 124.881C69.1495 125.247 70.4292 128.5 70.4247 131.618C70.4247 132.146 70.3881 132.669 70.3066 133.173C70.0388 134.821 69.7991 136.546 69.7986 138.141C69.7991 139.238 69.9107 140.276 70.2245 141.192C70.5363 142.106 71.0658 142.908 71.881 143.45C73.1597 144.3 75.1381 145.228 76.8152 145.959C78.4897 146.689 79.8535 147.211 79.858 147.213C80.1158 147.312 80.4055 147.183 80.5041 146.925C80.6032 146.667 80.4741 146.377 80.2163 146.278C80.2158 146.278 80.1333 146.247 79.9816 146.187C79.4496 145.978 78.0803 145.432 76.5829 144.763C75.087 144.096 73.456 143.298 72.436 142.617C71.8355 142.215 71.4356 141.632 71.1714 140.867C70.9086 140.104 70.7985 139.168 70.799 138.141C70.799 136.646 71.0287 134.964 71.2945 133.334C71.3866 132.768 71.4256 132.191 71.4256 131.618C71.4246 129.816 71.0432 128.037 70.6654 126.699C70.2865 125.363 69.9092 124.469 69.9032 124.456L69.8897 124.427C68.2436 121.132 67.623 117.927 67.622 114.733C67.62 109.748 69.1515 104.785 70.7074 99.697C72.2599 94.6102 73.8349 89.3988 73.8364 83.9017C73.8364 83.6254 73.6122 83.4012 73.3359 83.4012C73.0591 83.4012 72.8354 83.6254 72.8354 83.9017Z" fill="#17282F"/>
<path d="M93.0748 14.0121C93.0748 14.0121 93.288 18.8386 90.3903 24.6896C87.4926 30.5401 83.5394 30.2303 83.5394 30.2303L87.0947 37.0096C87.0947 37.0096 80.8644 37.0297 77.3616 32.111C73.8588 27.1919 73.0846 21.0947 77.3381 17.3042C79.8514 15.0636 84.4002 14.8419 84.4002 14.8419C84.4002 14.8419 88.2458 6.41145 94.8345 5.0732C102.124 3.59181 103.437 7.44642 107.622 7.87683C111.195 8.24367 113.801 6.50655 116.848 6.50655C121.904 6.50655 125.224 12.3595 121.317 18.2606C117.882 23.4504 112.424 22.9054 112.424 22.9054C112.424 22.9054 109.518 22.4445 106.106 20.9191C104.589 20.2409 101.692 18.1009 100.245 16.6641C96.4675 12.9131 93.0748 14.0121 93.0748 14.0121Z" fill="#BA54F9"/>
<path d="M81.2975 5.2258L84.8299 16.2411C84.9144 16.5044 85.1962 16.6495 85.4594 16.5649C85.7227 16.4804 85.8673 16.1991 85.7832 15.9359L82.2504 4.92002C82.1659 4.65678 81.8841 4.51215 81.6208 4.59623C81.3581 4.68081 81.213 4.96256 81.2975 5.2258Z" fill="#BA54F9"/>
<path d="M76.387 11.6818L85.1157 15.3042C85.371 15.4098 85.6637 15.2892 85.7698 15.0334C85.8759 14.7782 85.7548 14.4854 85.4996 14.3798L76.7704 10.7574C76.5152 10.6513 76.2224 10.7724 76.1163 11.0277C76.0107 11.2829 76.1318 11.5757 76.387 11.6818Z" fill="#BA54F9"/>
<path d="M91.3492 28.1354C91.5353 27.1815 92.4582 26.5595 93.4121 26.7451C94.365 26.9308 94.9871 27.8542 94.8014 28.8076C94.6157 29.761 93.6929 30.3835 92.739 30.1979C91.7861 30.0122 91.1635 29.0883 91.3492 28.1354Z" fill="#BA54F9"/>
<path d="M112.289 24.6935L112.785 24.626C111.748 16.9968 105.226 11.4616 97.7327 11.4616C97.0511 11.4616 96.3614 11.5077 95.6678 11.6018C88.0386 12.6387 82.5039 19.1608 82.5039 26.6539C82.5034 27.3355 82.5495 28.0252 82.6435 28.7188C83.6805 36.348 90.2031 41.8831 97.6957 41.8831C98.3773 41.8831 99.0669 41.8371 99.7606 41.743C107.39 40.706 112.925 34.1834 112.925 26.6909C112.925 26.0093 112.879 25.3196 112.785 24.626L112.289 24.6935L111.793 24.7606C111.881 25.4097 111.924 26.0543 111.924 26.6909C111.924 33.6865 106.753 39.7842 99.626 40.7511C98.9769 40.8392 98.3328 40.8822 97.6957 40.8822C90.7001 40.8822 84.6024 35.7109 83.6355 28.5842C83.5474 27.9351 83.5048 27.2905 83.5043 26.6539C83.5043 19.6583 88.6757 13.5601 95.8024 12.5937C96.4515 12.5051 97.0961 12.4626 97.7327 12.4626C104.729 12.4621 110.827 17.6339 111.793 24.7606L112.289 24.6935Z" fill="#17282F"/>
<path d="M98.7834 25.3778C98.9436 24.5555 98.4066 23.7593 97.5843 23.5991C96.7625 23.439 95.9658 23.976 95.8056 24.7983C95.6455 25.6205 96.182 26.4168 97.0047 26.5769C97.827 26.7371 98.6233 26.2001 98.7834 25.3778Z" fill="#17282F"/>
<path d="M107.592 25.4853C107.752 24.6631 107.215 23.8663 106.393 23.7062C105.571 23.546 104.775 24.083 104.614 24.9053C104.454 25.7276 104.991 26.5238 105.814 26.6839C106.635 26.8441 107.432 26.3076 107.592 25.4853Z" fill="#17282F"/>
<path d="M101.499 24.8393L103.313 30.6303L100.257 30.5407C99.9811 30.5327 99.7504 30.7499 99.7424 31.0261C99.7344 31.3024 99.9516 31.5331 100.228 31.5411L103.986 31.6517C104.149 31.6562 104.302 31.5832 104.4 31.4535C104.498 31.3244 104.527 31.1568 104.478 31.0021L102.454 24.54C102.371 24.2763 102.091 24.1292 101.827 24.2117C101.563 24.2948 101.416 24.5756 101.499 24.8393Z" fill="#17282F"/>
<path d="M99.6403 33.3371L99.7214 33.4157L99.6413 33.3361L99.6403 33.3371L99.7214 33.4157L99.6413 33.3361C99.6313 33.3472 99.3856 33.5884 98.9927 33.8176C98.5994 34.0483 98.0654 34.262 97.4693 34.2615C97.3087 34.2615 97.1425 34.246 96.9708 34.212C96.6295 34.1424 96.3753 33.9858 96.1571 33.7691C95.8323 33.4468 95.6146 32.9753 95.4934 32.5814C95.4319 32.3853 95.3934 32.2101 95.3703 32.087C95.3593 32.0259 95.3518 31.9774 95.3473 31.9453L95.3428 31.9108L95.3418 31.9043L95.2923 31.9098L95.3418 31.9048V31.9043L95.2923 31.9098L95.3418 31.9048C95.3138 31.6296 95.068 31.4294 94.7933 31.4579C94.518 31.4859 94.3183 31.7316 94.3464 32.0064C94.3504 32.0369 94.4139 32.675 94.7317 33.3977C94.8919 33.7585 95.1176 34.1434 95.4489 34.4762C95.7782 34.808 96.2231 35.0843 96.7742 35.1934C97.0129 35.2409 97.2456 35.2625 97.4693 35.2625C98.3321 35.2615 99.0473 34.9522 99.5457 34.6534C100.045 34.3531 100.335 34.0573 100.356 34.0368C100.55 33.8391 100.546 33.5223 100.348 33.3291C100.151 33.136 99.834 33.1395 99.6403 33.3371Z" fill="#17282F"/>
<path d="M77.9727 146.408L80.0361 156.898L159.89 144.865L158.672 133.661L77.9727 146.408Z" fill="#17282F"/>
<path d="M110.07 60.1023H211.475V180.876H129.827L110.07 160.108V60.1023Z" fill="white"/>
<path d="M110.067 60.1024V60.6028H210.971V180.375H130.301V160.106C130.301 159.974 130.248 159.845 130.155 159.752C130.062 159.659 129.933 159.606 129.801 159.606H110.567V60.1024H110.067H109.566V160.106C109.566 160.238 109.62 160.367 109.713 160.46C109.806 160.553 109.935 160.607 110.067 160.607H129.3V180.876C129.3 181.008 129.354 181.136 129.447 181.229C129.54 181.323 129.669 181.376 129.801 181.376H211.471C211.603 181.376 211.732 181.323 211.825 181.229C211.918 181.136 211.972 181.008 211.972 180.876V60.1024C211.972 59.9707 211.918 59.8416 211.825 59.7485C211.732 59.6554 211.603 59.6019 211.471 59.6019H110.067C109.935 59.6019 109.806 59.6554 109.713 59.7485C109.62 59.8416 109.566 59.9707 109.566 60.1024H110.067Z" fill="#BA54F9"/>
<path d="M109.708 160.452L129.465 181.221C129.656 181.421 129.973 181.428 130.173 181.238C130.373 181.047 130.381 180.731 130.19 180.531L110.433 159.763C110.243 159.562 109.926 159.554 109.726 159.745C109.526 159.935 109.518 160.252 109.708 160.452Z" fill="#BA54F9"/>
<path d="M118.266 84.6628V154.346C118.266 154.622 118.489 154.846 118.766 154.846C119.042 154.846 119.267 154.622 119.267 154.346V84.6628C119.267 84.3866 119.042 84.1624 118.766 84.1624C118.489 84.1624 118.266 84.3866 118.266 84.6628Z" fill="#BA54F9"/>
<path d="M185.904 68.9942H135.997C135.72 68.9942 135.496 69.2184 135.496 69.4947C135.496 69.7709 135.72 69.9951 135.997 69.9951H185.904C186.18 69.9951 186.404 69.7709 186.404 69.4947C186.404 69.2184 186.18 68.9942 185.904 68.9942Z" fill="#BA54F9"/>
<path d="M203.352 83.9016V154.346C203.352 154.622 203.576 154.846 203.852 154.846C204.128 154.846 204.353 154.622 204.353 154.346V83.9016C204.353 83.6254 204.128 83.4012 203.852 83.4012C203.576 83.4012 203.352 83.6254 203.352 83.9016Z" fill="#BA54F9"/>
<path d="M116.211 68.8905C116.211 67.6178 117.243 66.5858 118.516 66.5858C119.789 66.5858 120.821 67.6178 120.821 68.8905C120.821 70.1636 119.789 71.1956 118.516 71.1956C117.243 71.1956 116.211 70.1636 116.211 68.8905Z" fill="#BA54F9"/>
<path d="M122.996 68.947C122.996 68.947 128.944 66.235 130.668 67.4411C132.393 68.6463 130.93 70.7302 129.313 70.6476C127.695 70.5641 122.996 68.947 122.996 68.947Z" fill="#BA54F9"/>
<path d="M118.461 72.4895C118.461 72.4895 121.173 78.4366 119.967 80.1617C118.761 81.8868 116.678 80.4234 116.76 78.8059C116.843 77.1884 118.461 72.4895 118.461 72.4895Z" fill="#BA54F9"/>
<path d="M121.605 71.7827C121.605 71.7827 127.729 74.0703 128.096 76.1428C128.462 78.2152 125.955 78.6531 124.87 77.451C123.785 76.2489 121.605 71.7827 121.605 71.7827Z" fill="#BA54F9"/>
<path d="M165.473 144.836L165.298 145.305L165.363 145.329C165.688 145.454 167.193 146.047 168.636 146.837C169.358 147.231 170.063 147.675 170.587 148.118C170.849 148.339 171.065 148.559 171.215 148.761C171.366 148.964 171.447 149.144 171.471 149.283C171.491 149.396 171.499 149.498 171.499 149.592C171.494 149.984 171.362 150.209 171.156 150.386C170.949 150.56 170.634 150.666 170.293 150.665C169.851 150.666 169.394 150.488 169.109 150.169C168.881 149.919 168.545 149.426 168.197 148.852C167.672 147.987 167.101 146.925 166.664 146.082C166.445 145.661 166.26 145.293 166.129 145.032C165.998 144.771 165.923 144.617 165.923 144.617L165.473 144.836L165.023 145.056C165.025 145.059 165.572 146.18 166.258 147.456C166.6 148.094 166.978 148.771 167.342 149.371C167.708 149.972 168.051 150.489 168.366 150.839C168.877 151.402 169.598 151.665 170.293 151.666C170.83 151.665 171.369 151.508 171.795 151.157C172.222 150.81 172.506 150.248 172.5 149.592C172.5 149.436 172.485 149.274 172.456 149.109C172.389 148.738 172.209 148.41 171.975 148.106C171.561 147.577 170.967 147.105 170.302 146.666C168.314 145.359 165.666 144.375 165.649 144.367C165.456 144.295 165.241 144.347 165.103 144.499C164.965 144.652 164.933 144.87 165.023 145.056L165.473 144.836Z" fill="#BA54F9"/>
<path d="M161.258 146.941L160.784 147.101C160.784 147.102 160.811 147.181 160.86 147.333C161.032 147.862 161.462 149.239 161.849 150.827C162.236 152.412 162.575 154.218 162.573 155.555C162.576 156.232 162.479 156.783 162.32 157.081C162.153 157.404 161.98 157.603 161.832 157.714C161.682 157.825 161.564 157.857 161.442 157.859C161.316 157.859 161.174 157.816 161.016 157.713C160.779 157.56 160.529 157.267 160.349 156.892C160.168 156.517 160.056 156.064 160.056 155.604L160.058 155.497C160.076 154.999 160.189 154.201 160.351 153.311C160.593 151.972 160.942 150.407 161.23 149.18C161.373 148.567 161.502 148.037 161.595 147.662C161.687 147.286 161.743 147.065 161.743 147.065L161.258 146.941L160.773 146.818C160.773 146.821 160.367 148.412 159.951 150.281C159.742 151.216 159.531 152.22 159.366 153.133C159.201 154.048 159.081 154.864 159.058 155.459C159.056 155.507 159.055 155.556 159.055 155.604C159.057 156.432 159.314 157.208 159.725 157.806C159.932 158.105 160.179 158.361 160.466 158.55C160.752 158.738 161.086 158.86 161.442 158.86C161.785 158.861 162.135 158.741 162.434 158.514C162.735 158.286 162.991 157.962 163.209 157.541C163.489 156.99 163.571 156.315 163.574 155.555C163.571 153.85 163.108 151.68 162.651 149.909C162.192 148.143 161.735 146.789 161.733 146.782C161.662 146.571 161.461 146.433 161.239 146.441C161.018 146.45 160.828 146.602 160.773 146.818L161.258 146.941Z" fill="#BA54F9"/>
<path d="M156.741 144.836L156.566 144.367C156.555 144.371 155.011 144.948 153.401 145.796C152.595 146.221 151.773 146.713 151.106 147.251C150.772 147.521 150.477 147.803 150.241 148.106C150.006 148.41 149.826 148.738 149.759 149.109C149.729 149.274 149.715 149.436 149.715 149.592C149.71 150.248 149.993 150.81 150.421 151.157C150.846 151.508 151.385 151.665 151.922 151.666C152.617 151.665 153.338 151.402 153.849 150.839C154.164 150.489 154.507 149.972 154.873 149.371C155.963 147.576 157.188 145.062 157.191 145.056C157.281 144.871 157.25 144.652 157.112 144.499C156.974 144.347 156.759 144.295 156.566 144.367L156.741 144.836L156.292 144.617C156.292 144.617 156.259 144.685 156.197 144.808C155.983 145.24 155.431 146.341 154.817 147.459C154.51 148.017 154.188 148.58 153.888 149.063C153.589 149.545 153.305 149.95 153.107 150.169C152.821 150.488 152.364 150.666 151.922 150.665C151.581 150.666 151.266 150.56 151.059 150.386C150.852 150.209 150.721 149.984 150.716 149.592C150.716 149.499 150.725 149.396 150.745 149.283C150.77 149.135 150.861 148.939 151.032 148.72C151.327 148.337 151.85 147.905 152.463 147.502C153.384 146.895 154.505 146.34 155.389 145.943C155.831 145.744 156.215 145.584 156.487 145.473C156.623 145.418 156.732 145.376 156.806 145.347C156.879 145.319 156.917 145.305 156.917 145.305L156.741 144.836Z" fill="#BA54F9"/>
<path d="M206.098 69.4367C206.098 68.164 205.066 67.132 203.793 67.132C202.52 67.132 201.488 68.164 201.488 69.4367C201.488 70.7099 202.52 71.7418 203.793 71.7418C205.066 71.7418 206.098 70.7099 206.098 69.4367Z" fill="#BA54F9"/>
<path d="M199.315 69.4931C199.315 69.4931 193.368 66.7811 191.643 67.9872C189.918 69.1923 191.381 71.2763 192.999 71.1932C194.616 71.1101 199.315 69.4931 199.315 69.4931Z" fill="#BA54F9"/>
<path d="M203.85 73.0354C203.85 73.0354 201.139 78.9825 202.344 80.7071C203.55 82.4327 205.634 80.9689 205.551 79.3518C205.468 77.7343 203.85 73.0354 203.85 73.0354Z" fill="#BA54F9"/>
<path d="M200.706 72.3288C200.706 72.3288 194.583 74.6159 194.216 76.6884C193.849 78.7608 196.357 79.1992 197.442 77.9966C198.527 76.795 200.706 72.3288 200.706 72.3288Z" fill="#BA54F9"/>
<path d="M206.098 170.661C206.098 171.934 205.066 172.966 203.793 172.966C202.52 172.966 201.488 171.934 201.488 170.661C201.488 169.388 202.52 168.356 203.793 168.356C205.066 168.356 206.098 169.388 206.098 170.661Z" fill="#BA54F9"/>
<path d="M199.315 170.604C199.315 170.604 193.368 173.316 191.643 172.111C189.918 170.905 191.381 168.821 192.999 168.904C194.616 168.987 199.315 170.604 199.315 170.604Z" fill="#BA54F9"/>
<path d="M203.85 167.062C203.85 167.062 201.139 161.115 202.344 159.39C203.55 157.665 205.634 159.129 205.551 160.746C205.468 162.364 203.85 167.062 203.85 167.062Z" fill="#BA54F9"/>
<path d="M200.706 167.769C200.706 167.769 194.583 165.481 194.216 163.409C193.849 161.336 196.357 160.898 197.442 162.1C198.527 163.303 200.706 167.769 200.706 167.769Z" fill="#BA54F9"/>
<path d="M158.762 140.567C158.762 139.157 159.905 138.015 161.315 138.015C162.724 138.015 163.867 139.157 163.867 140.567C163.867 141.977 162.724 143.12 161.315 143.12C159.905 143.12 158.762 141.977 158.762 140.567Z" fill="#BA54F9"/>
<path d="M168.735 140.629L168.873 141.11C168.873 141.11 168.979 141.08 169.177 141.026C169.87 140.835 171.67 140.356 173.748 139.927C175.824 139.497 178.187 139.118 179.965 139.119C180.866 139.117 181.617 139.223 182.053 139.42C182.493 139.612 182.773 139.817 182.927 139.993C183.082 140.171 183.119 140.301 183.122 140.426C183.122 140.556 183.07 140.714 182.929 140.897C182.721 141.17 182.317 141.463 181.802 141.673C181.288 141.884 180.666 142.015 180.03 142.015C179.981 142.015 179.931 142.014 179.881 142.012C179.21 141.991 178.166 141.865 177 141.685C175.247 141.416 173.204 141.029 171.603 140.71C170.802 140.551 170.111 140.408 169.62 140.305C169.13 140.203 168.842 140.14 168.841 140.14L168.735 140.629L168.629 141.119C168.632 141.119 170.705 141.568 173.138 142.029C174.355 142.259 175.662 142.492 176.848 142.675C178.035 142.856 179.095 142.988 179.849 143.013C179.91 143.015 179.97 143.016 180.03 143.016C181.06 143.014 182.033 142.741 182.783 142.303C183.159 142.082 183.48 141.819 183.721 141.509C183.96 141.2 184.122 140.83 184.123 140.426C184.125 140.037 183.963 139.647 183.676 139.328C183.389 139.006 182.986 138.737 182.456 138.503C181.787 138.213 180.939 138.121 179.965 138.118C177.783 138.12 174.96 138.63 172.661 139.135C170.365 139.641 168.603 140.146 168.597 140.148C168.376 140.211 168.227 140.416 168.235 140.646C168.242 140.875 168.404 141.07 168.629 141.119L168.735 140.629Z" fill="#BA54F9"/>
<path d="M153.481 140.629L153.618 140.148C153.612 140.146 151.85 139.641 149.555 139.135C147.255 138.63 144.433 138.12 142.251 138.118C141.277 138.121 140.429 138.213 139.76 138.503C139.23 138.737 138.827 139.006 138.54 139.328C138.253 139.647 138.091 140.037 138.094 140.426C138.094 140.83 138.256 141.2 138.495 141.509C138.857 141.973 139.397 142.336 140.035 142.599C140.673 142.86 141.413 143.015 142.186 143.016C142.246 143.016 142.306 143.015 142.367 143.013H142.367C143.121 142.988 144.181 142.856 145.368 142.675C148.923 142.128 153.581 141.119 153.586 141.119C153.811 141.07 153.973 140.875 153.981 140.646C153.988 140.416 153.84 140.211 153.618 140.148L153.481 140.629L153.375 140.14C153.374 140.14 152.86 140.251 152.041 140.42C150.813 140.674 148.903 141.057 147.039 141.383C145.177 141.711 143.345 141.981 142.335 142.012H142.335C142.285 142.014 142.236 142.015 142.186 142.015C141.338 142.016 140.515 141.779 139.939 141.439C139.651 141.271 139.427 141.078 139.287 140.897C139.146 140.714 139.094 140.556 139.095 140.426C139.097 140.301 139.134 140.171 139.288 139.993C139.443 139.817 139.723 139.612 140.163 139.42C140.599 139.223 141.35 139.117 142.251 139.119C144.284 139.118 147.077 139.613 149.339 140.113C150.471 140.362 151.474 140.612 152.192 140.799C152.552 140.893 152.84 140.971 153.038 141.026C153.236 141.08 153.343 141.11 153.343 141.11L153.481 140.629Z" fill="#BA54F9"/>
<path d="M171.701 49.4227C171.293 49.4012 170.881 49.4648 170.501 49.5874C168.98 50.0763 169.482 59.5322 169.482 59.5322H173.608C171.638 63.6736 170.869 68.885 173.69 68.885C174.785 68.885 175.731 67.8595 176.501 67.1258L176.533 67.0608C176.642 69.1027 177.347 70.6436 178.786 70.6436C179.802 70.6436 181.177 70.1777 181.892 69.444L182.007 69.2298C182.266 70.0766 182.772 70.6436 183.634 70.6436C186.539 70.6436 188.535 65.726 189.503 64.151C190.471 62.5761 194.912 60.0942 192.61 57.5759C191.721 56.605 190.603 56.3747 189.42 56.639L189.503 56.4913C189.391 56.1245 188.56 55.0825 188.221 54.8143C187.182 53.994 185.848 53.9179 184.457 54.3538L184.637 54.0746C182.581 52.5672 179.789 52.7959 177.339 54.6006C176.832 53.9265 176.373 53.3284 175.334 51.839C174.213 50.2345 172.923 49.4883 171.701 49.4227Z" fill="white"/>
<path d="M192.608 57.584L192.977 57.2462C192.224 56.4154 191.258 56.022 190.27 56.0275C189.066 56.0305 187.845 56.562 186.699 57.3958C185.553 58.2331 184.477 59.3857 183.586 60.7004C182.879 61.7459 182.31 62.9735 181.912 64.2122C181.515 65.4514 181.29 66.6995 181.289 67.7991C181.292 68.6789 181.429 69.4696 181.796 70.0972C181.979 70.4095 182.228 70.6798 182.543 70.8664C182.858 71.0541 183.231 71.1512 183.631 71.1502C184.503 71.1502 185.283 70.7794 185.949 70.2489C186.952 69.4491 187.756 68.277 188.419 67.1595C188.75 66.6009 189.042 66.0549 189.296 65.578C189.549 65.102 189.767 64.6921 189.934 64.4209C190.079 64.1797 190.39 63.8419 190.77 63.4725C191.34 62.9135 192.064 62.2689 192.663 61.5527C192.962 61.1939 193.231 60.815 193.431 60.4081C193.631 60.0017 193.763 59.5613 193.763 59.0959C193.767 58.4673 193.509 57.8212 192.977 57.2462L192.608 57.584L192.238 57.9213C192.636 58.3622 192.759 58.7291 192.762 59.0959C192.763 59.4592 192.622 59.8566 192.36 60.277C191.97 60.9076 191.322 61.5582 190.689 62.1628C190.372 62.4661 190.059 62.7593 189.782 63.0446C189.504 63.3309 189.261 63.6051 189.081 63.8969C188.82 64.3218 188.516 64.9224 188.149 65.5995C187.601 66.6125 186.918 67.788 186.135 68.6819C185.744 69.1288 185.33 69.5032 184.909 69.7579C184.488 70.0126 184.068 70.1488 183.631 70.1493C183.386 70.1483 183.206 70.0952 183.054 70.0056C182.83 69.8725 182.641 69.6338 182.502 69.2549C182.365 68.8786 182.29 68.3761 182.29 67.7991C182.29 66.8372 182.494 65.6736 182.865 64.518C183.235 63.3614 183.771 62.2108 184.415 61.2619C185.247 60.0323 186.256 58.9578 187.289 58.2046C188.323 57.4479 189.375 57.025 190.27 57.028C191.008 57.0335 191.649 57.2852 192.238 57.9213L192.608 57.584Z" fill="#17282F"/>
<path d="M189.986 56.3513C189.926 56.1662 189.839 56.0225 189.728 55.8474C189.564 55.5916 189.349 55.3068 189.135 55.0501C189.029 54.9225 188.924 54.8024 188.824 54.6968C188.723 54.5912 188.632 54.5021 188.536 54.425C187.803 53.844 186.925 53.5777 186.021 53.5797C184.617 53.5827 183.143 54.1878 181.76 55.1737C180.377 56.1626 179.082 57.5439 178.065 59.161C176.714 61.318 176 64.1586 175.996 66.5384C175.998 67.7475 176.178 68.84 176.608 69.6888C176.823 70.1117 177.107 70.4776 177.476 70.7403C177.844 71.0041 178.297 71.1517 178.784 71.1502C179.37 71.1492 180.016 71.0166 180.63 70.7869C181.244 70.5541 181.824 70.2273 182.256 69.7859C182.449 69.5877 182.445 69.2709 182.247 69.0782C182.049 68.8856 181.732 68.8896 181.539 69.0873C181.258 69.3795 180.789 69.6593 180.278 69.85C179.768 70.0427 179.215 70.1503 178.784 70.1493C178.488 70.1473 178.265 70.0707 178.057 69.9245C177.748 69.7078 177.472 69.2939 177.284 68.7034C177.096 68.1153 176.997 67.3666 176.997 66.5384C176.993 64.3598 177.683 61.6418 178.913 59.694C179.861 58.1835 181.077 56.8913 182.342 55.988C183.606 55.0826 184.915 54.5772 186.021 54.5807C186.737 54.5827 187.366 54.7789 187.916 55.2108C187.958 55.2428 188.066 55.3474 188.182 55.477C188.358 55.6722 188.567 55.9324 188.736 56.1671C188.82 56.2843 188.893 56.3954 188.947 56.4854L189.009 56.5986L189.025 56.6331L189.029 56.6441C189.11 56.9083 189.39 57.057 189.654 56.9764C189.918 56.8953 190.067 56.6156 189.986 56.3513Z" fill="#17282F"/>
<path d="M184.929 53.6763C183.923 52.9376 182.743 52.5708 181.524 52.5718C178.988 52.5753 176.309 54.1242 174.348 57.0195C173.473 58.3137 172.722 59.8956 172.183 61.4891C171.645 63.0836 171.318 64.6841 171.316 66.0374C171.319 66.9292 171.454 67.7225 171.827 68.3506C172.014 68.6629 172.269 68.9316 172.59 69.1148C172.909 69.299 173.287 69.392 173.692 69.391C174.402 69.3885 175.005 69.0662 175.516 68.6879C176.028 68.3065 176.468 67.8511 176.844 67.4938C177.044 67.3031 177.051 66.9863 176.86 66.7866C176.669 66.5864 176.353 66.5789 176.153 66.7696C175.759 67.1459 175.344 67.5698 174.919 67.8846C174.492 68.2029 174.077 68.3926 173.692 68.3901C173.433 68.3896 173.244 68.3356 173.087 68.2465C172.856 68.1139 172.67 67.8816 172.53 67.5048C172.391 67.1309 172.317 66.6255 172.317 66.0374C172.316 64.8458 172.618 63.3244 173.131 61.8099C173.643 60.294 174.364 58.7801 175.177 57.581C176.997 54.892 179.409 53.5692 181.524 53.5727C182.545 53.5737 183.502 53.8725 184.337 54.4836C184.56 54.6472 184.874 54.5992 185.037 54.376C185.2 54.1533 185.152 53.84 184.929 53.6763Z" fill="#17282F"/>
<path d="M169.986 59.5067C169.986 59.5062 169.981 59.4162 169.973 59.249C169.951 58.7485 169.907 57.5709 169.907 56.2086C169.907 54.8314 169.953 53.2604 170.109 52.0257C170.186 51.4096 170.293 50.8756 170.42 50.5143C170.482 50.3341 170.55 50.199 170.603 50.1249L170.662 50.0579L170.669 50.0524L170.643 50.0063L170.659 50.0564L170.669 50.0524L170.643 50.0063L170.659 50.0564C170.936 49.9673 171.222 49.9218 171.516 49.9218C172.055 49.9223 172.623 50.0754 173.203 50.4272C173.782 50.7786 174.371 51.3311 174.926 52.1258C175.661 53.1783 176.077 53.9205 176.308 54.3899C176.424 54.6247 176.492 54.7908 176.531 54.8934C176.55 54.945 176.562 54.9805 176.568 55.0005L176.574 55.019L176.574 55.02L176.882 54.938L176.573 55.015L176.574 55.02L176.882 54.938L176.573 55.015C176.64 55.2833 176.912 55.4464 177.18 55.3794C177.448 55.3123 177.611 55.0406 177.544 54.7723C177.523 54.6922 177.264 53.7283 175.747 51.5528C175.127 50.6649 174.442 50.0083 173.723 49.5714C173.004 49.1345 172.249 48.9203 171.516 48.9208C171.117 48.9208 170.726 48.9834 170.353 49.104C170.097 49.1876 169.918 49.3617 169.787 49.5464C169.559 49.8742 169.425 50.2796 169.311 50.763C169.144 51.4857 169.046 52.3816 168.985 53.334C168.926 54.2853 168.906 55.2898 168.906 56.2086C168.906 58.0539 168.986 59.5538 168.986 59.5598C169.001 59.8355 169.236 60.0477 169.512 60.0327C169.788 60.0182 170 59.7825 169.986 59.5067Z" fill="#17282F"/>
<path d="M140.317 97.9488H136.354V108.694H133.172V97.9488H129.281V95.4915H140.317V97.9488Z" fill="#BA54F9"/>
<path d="M152.696 108.694H149.531V103.181H144.843V108.694H141.66V95.4915H144.843V100.732H149.531V95.4915H152.696V108.694Z" fill="#BA54F9"/>
<path d="M158.772 103.77H161.61L160.186 99.1914L158.772 103.77ZM162.372 106.228H158.01L157.248 108.694H153.848L158.69 95.4915H161.682L166.561 108.694H163.142L162.372 106.228Z" fill="#BA54F9"/>
<path d="M178.546 108.694H175.381L170.703 100.479V108.694H167.52V95.4915H170.703L175.372 103.707V95.4915H178.546V108.694Z" fill="#BA54F9"/>
<path d="M185.047 103.779L183.742 105.212V108.694H180.559V95.4915H183.742V101.313L184.848 99.6353L187.695 95.4915H191.63L187.169 101.331L191.63 108.694H187.858L185.047 103.779Z" fill="#BA54F9"/>
<path d="M145.186 123.508L147.616 117.777H151.053L146.8 126.237V130.98H143.572V126.237L139.328 117.777H142.746L145.186 123.508Z" fill="#BA54F9"/>
<path d="M159.694 124.097C159.694 122.785 159.475 121.789 159.037 121.109C158.599 120.429 157.972 120.089 157.155 120.089C155.56 120.089 154.716 121.286 154.625 123.68L154.616 124.65C154.616 125.944 154.831 126.939 155.26 127.634C155.689 128.329 156.327 128.677 157.173 128.677C157.978 128.677 158.597 128.335 159.033 127.652C159.467 126.969 159.688 125.987 159.694 124.705V124.097ZM162.932 124.65C162.932 125.938 162.693 127.078 162.215 128.069C161.738 129.061 161.059 129.824 160.179 130.359C159.3 130.894 158.298 131.161 157.173 131.161C156.049 131.161 155.052 130.903 154.181 130.386C153.31 129.869 152.632 129.13 152.145 128.169C151.659 127.207 151.403 126.105 151.379 124.859V124.115C151.379 122.822 151.617 121.681 152.091 120.693C152.566 119.704 153.246 118.941 154.131 118.402C155.016 117.864 156.025 117.596 157.155 117.596C158.274 117.596 159.271 117.861 160.148 118.393C161.024 118.925 161.706 119.683 162.193 120.665C162.679 121.647 162.926 122.774 162.932 124.043V124.65Z" fill="#BA54F9"/>
<path d="M174.928 117.777V126.419C174.928 127.398 174.719 128.246 174.303 128.962C173.885 129.679 173.287 130.224 172.507 130.599C171.727 130.974 170.805 131.161 169.741 131.161C168.133 131.161 166.867 130.744 165.942 129.91C165.017 129.075 164.545 127.933 164.527 126.482V117.777H167.728V126.546C167.764 127.99 168.435 128.713 169.741 128.713C170.4 128.713 170.899 128.531 171.237 128.169C171.576 127.806 171.745 127.217 171.745 126.4V117.777H174.928Z" fill="#BA54F9"/>
<path d="M179.808 126.799H177.333L176.942 117.777H180.198L179.808 126.799ZM176.852 129.61C176.852 129.163 177.014 128.796 177.337 128.509C177.66 128.222 178.064 128.078 178.548 128.078C179.031 128.078 179.434 128.222 179.758 128.509C180.082 128.796 180.243 129.163 180.243 129.61C180.243 130.058 180.082 130.425 179.758 130.712C179.434 130.999 179.031 131.143 178.548 131.143C178.064 131.143 177.66 130.999 177.337 130.712C177.014 130.425 176.852 130.058 176.852 129.61Z" fill="#BA54F9"/>
</svg>
