<svg width="32" height="32" viewBox="0 0 32 32" fill="none" xmlns="http://www.w3.org/2000/svg">
<path d="M20.9995 7C20.9995 6.73478 21.1049 6.48043 21.2924 6.29289C21.48 6.10536 21.7343 6 21.9995 6H23.9995V4C23.9995 3.73478 24.1049 3.48043 24.2924 3.29289C24.48 3.10536 24.7343 3 24.9995 3C25.2648 3 25.5191 3.10536 25.7067 3.29289C25.8942 3.48043 25.9995 3.73478 25.9995 4V6H27.9995C28.2648 6 28.5191 6.10536 28.7067 6.29289C28.8942 6.48043 28.9995 6.73478 28.9995 7C28.9995 7.26522 28.8942 7.51957 28.7067 7.70711C28.5191 7.89464 28.2648 8 27.9995 8H25.9995V10C25.9995 10.2652 25.8942 10.5196 25.7067 10.7071C25.5191 10.8946 25.2648 11 24.9995 11C24.7343 11 24.48 10.8946 24.2924 10.7071C24.1049 10.5196 23.9995 10.2652 23.9995 10V8H21.9995C21.7343 8 21.48 7.89464 21.2924 7.70711C21.1049 7.51957 20.9995 7.26522 20.9995 7ZM28.8195 13.835C29.2764 16.5507 28.8584 19.3413 27.6258 21.804C26.3933 24.2666 24.41 26.2738 21.9623 27.5358C19.5146 28.7977 16.7292 29.2492 14.0082 28.8249C11.2872 28.4006 8.7715 27.1226 6.82423 25.1753C4.87696 23.228 3.59892 20.7123 3.17464 17.9913C2.75036 15.2703 3.2018 12.4849 4.46377 10.0372C5.72575 7.58956 7.73295 5.60627 10.1956 4.37372C12.6582 3.14117 15.4488 2.72314 18.1645 3.18C18.4241 3.22591 18.6551 3.37245 18.8072 3.58776C18.9593 3.80307 19.0202 4.06973 18.9767 4.32973C18.9332 4.58972 18.7888 4.82203 18.5749 4.97611C18.361 5.13019 18.0949 5.19358 17.8345 5.1525C16.2572 4.88716 14.641 4.96872 13.0984 5.39151C11.5558 5.8143 10.1238 6.56816 8.90219 7.60062C7.68056 8.63309 6.69858 9.91937 6.02459 11.3699C5.35061 12.8205 5.00081 14.4005 4.99954 16C4.99717 18.6927 5.98686 21.292 7.77954 23.3012C8.89483 21.6851 10.4631 20.4348 12.287 19.7075C11.3073 18.9358 10.5923 17.878 10.2416 16.6811C9.89094 15.4843 9.92192 14.2079 10.3303 13.0294C10.7386 11.851 11.5041 10.8291 12.5201 10.1059C13.5362 9.38262 14.7524 8.99397 15.9995 8.99397C17.2467 8.99397 18.4629 9.38262 19.479 10.1059C20.495 10.8291 21.2605 11.851 21.6688 13.0294C22.0772 14.2079 22.1082 15.4843 21.7575 16.6811C21.4068 17.878 20.6918 18.9358 19.712 19.7075C21.536 20.4348 23.1043 21.6851 24.2195 23.3012C26.0122 21.292 27.0019 18.6927 26.9995 16C26.9996 15.3852 26.9486 14.7714 26.847 14.165C26.824 14.0349 26.827 13.9016 26.8559 13.7726C26.8847 13.6437 26.9388 13.5218 27.015 13.4139C27.0912 13.306 27.188 13.2143 27.2999 13.144C27.4118 13.0738 27.5365 13.0264 27.6668 13.0046C27.797 12.9828 27.9304 12.987 28.059 13.017C28.1877 13.047 28.3091 13.1023 28.4163 13.1795C28.5235 13.2567 28.6143 13.3544 28.6835 13.4669C28.7527 13.5794 28.799 13.7045 28.8195 13.835ZM15.9995 19C16.7907 19 17.564 18.7654 18.2218 18.3259C18.8796 17.8864 19.3923 17.2616 19.6951 16.5307C19.9978 15.7998 20.077 14.9956 19.9227 14.2196C19.7683 13.4437 19.3874 12.731 18.828 12.1716C18.2686 11.6122 17.5558 11.2312 16.7799 11.0769C16.004 10.9225 15.1997 11.0017 14.4688 11.3045C13.7379 11.6072 13.1132 12.1199 12.6737 12.7777C12.2341 13.4355 11.9995 14.2089 11.9995 15C11.9995 16.0609 12.421 17.0783 13.1711 17.8284C13.9213 18.5786 14.9387 19 15.9995 19ZM15.9995 27C18.4412 27.0025 20.8137 26.1885 22.7395 24.6875C22.0161 23.5561 21.0195 22.625 19.8416 21.9801C18.6637 21.3351 17.3425 20.9971 15.9995 20.9971C14.6566 20.9971 13.3353 21.3351 12.1574 21.9801C10.9796 22.625 9.98296 23.5561 9.25954 24.6875C11.1854 26.1885 13.5578 27.0025 15.9995 27Z" fill="#7655FA"/>
</svg>
